<svg width="140" height="28" viewBox="0 0 140 28" fill="none" xmlns="http://www.w3.org/2000/svg">
<path d="M15.6973 27.6152C14.6543 27.6152 13.8984 27.3516 13.4297 26.8242C13.0664 26.4258 12.8848 25.8867 12.8848 25.207C12.8848 24.668 12.9668 24.0469 13.1309 23.3438C13.2949 22.6289 13.5352 21.709 13.8516 20.584C14.168 19.4473 14.4023 18.5098 14.5547 17.7715C14.7188 17.0332 14.8008 16.3535 14.8008 15.7324C14.8008 14.9707 14.6426 14.3789 14.3262 13.957C13.9746 13.5117 13.4121 13.2891 12.6387 13.2891C12.1816 13.2891 11.7832 13.3359 11.4434 13.4297L8.56055 27H3.39258L8.5957 2.51367C6.97852 3.19336 5.73633 4.20117 4.86914 5.53711C4.00195 6.87305 3.56836 8.49609 3.56836 10.4062C3.56836 11.1562 3.65039 11.7539 3.81445 12.1992C3.86133 12.3516 3.91992 12.4863 3.99023 12.6035C4.03711 12.6855 4.06055 12.7676 4.06055 12.8496C2.75977 12.8496 1.81055 12.5918 1.21289 12.0762C0.544922 11.5137 0.210938 10.6055 0.210938 9.35156C0.210938 8.56641 0.380859 7.79297 0.720703 7.03125C1.06055 6.25781 1.54102 5.51367 2.16211 4.79883C2.74805 4.11914 3.44531 3.48633 4.25391 2.90039C5.07422 2.30273 5.95898 1.78711 6.9082 1.35352C8.90039 0.451172 10.8809 0 12.8496 0C13.3887 0 13.8691 0.0234375 14.291 0.0703125L11.9531 11.0918L12.9727 9.73828C13.6172 8.84766 14.4785 7.69336 15.5566 6.27539L16.8926 4.46484L18.1406 2.79492L19.1602 1.42383L19.8633 0.509766L20.127 0.175781H23.9062L13.9043 11.707C14.209 11.707 14.4258 11.7012 14.5547 11.6895C14.6836 11.6777 14.8828 11.6719 15.1523 11.6719C16.793 11.6719 17.9766 12.0352 18.7031 12.7617C19.3125 13.3828 19.6172 14.3027 19.6172 15.5215C19.6172 16.1895 19.541 16.9043 19.3887 17.666C19.2363 18.416 19.0195 19.3066 18.7383 20.3379C18.4219 21.4863 18.1934 22.3652 18.0527 22.9746C17.9238 23.5723 17.8594 24.123 17.8594 24.627C17.8594 25.1895 17.9824 25.6875 18.2285 26.1211C18.4863 26.543 18.832 26.8359 19.2656 27C17.8242 27.4102 16.6348 27.6152 15.6973 27.6152ZM25.9805 27.2109C24.6094 27.2109 23.502 26.7832 22.6582 25.9277C21.6738 24.9199 21.1816 23.4199 21.1816 21.4277C21.1816 20.584 21.2695 19.6934 21.4453 18.7559C21.6094 17.8184 21.8555 16.8926 22.1836 15.9785C22.9336 13.916 23.959 12.252 25.2598 10.9863C26.7598 9.54492 28.4883 8.82422 30.4453 8.82422C31.418 8.82422 32.1445 8.99414 32.625 9.33398C33.1172 9.66211 33.3633 10.1016 33.3633 10.6523V10.916L33.75 9H38.9355L36.3516 21.2344C36.2461 21.5859 36.1934 21.9727 36.1934 22.3945C36.1934 23.4258 36.6855 23.9414 37.6699 23.9414C38.3262 23.9414 38.9238 23.6074 39.4629 22.9395C39.9199 22.377 40.2949 21.5801 40.5879 20.5488H42.0996C41.4551 22.377 40.6758 23.8242 39.7617 24.8906C38.9883 25.7695 38.1152 26.4023 37.1426 26.7891C36.4277 27.0703 35.6719 27.2109 34.875 27.2109C33.8555 27.2109 33.041 26.9355 32.4316 26.3848C31.834 25.8223 31.4707 24.9961 31.3418 23.9062C30.6621 24.8672 29.9473 25.6172 29.1973 26.1562C28.2363 26.8594 27.1641 27.2109 25.9805 27.2109ZM28.3184 23.7305C28.5879 23.7305 28.8691 23.6602 29.1621 23.5195C29.4668 23.3789 29.7598 23.1797 30.041 22.9219C30.6738 22.3125 31.0957 21.5215 31.3066 20.5488L33.0293 12.4277C33.0293 12.3105 33 12.1758 32.9414 12.0234C32.8945 11.8594 32.8242 11.707 32.7305 11.5664C32.4492 11.2266 32.0566 11.0566 31.5527 11.0566C31.0723 11.0566 30.6035 11.2148 30.1465 11.5312C29.7012 11.8477 29.2793 12.2871 28.8809 12.8496C28.1777 13.8691 27.5977 15.1992 27.1406 16.8398C26.9297 17.5664 26.7715 18.2871 26.666 19.002C26.5605 19.7051 26.5078 20.3438 26.5078 20.918C26.5078 22.1133 26.7305 22.9219 27.1758 23.3438C27.3281 23.5078 27.498 23.6133 27.6855 23.6602C27.873 23.707 28.084 23.7305 28.3184 23.7305ZM44.1738 27.2109C43.0254 27.2109 42.1172 26.8711 41.4492 26.1914C40.6992 25.4414 40.3242 24.3457 40.3242 22.9043C40.3242 22.2246 40.418 21.4395 40.6055 20.5488L44.4551 2.51367L49.7812 1.79297L45.6504 21.2344C45.5566 21.5391 45.5098 21.9258 45.5098 22.3945C45.5098 22.8867 45.6211 23.2324 45.8438 23.4316C46.0781 23.6309 46.4531 23.7305 46.9688 23.7305C47.3203 23.7305 47.6602 23.6543 47.9883 23.502C48.3281 23.3379 48.6387 23.1152 48.9199 22.834C49.4941 22.2598 49.9277 21.498 50.2207 20.5488H51.7324C51.0879 22.3652 50.2793 23.8125 49.3066 24.8906C48.4863 25.7695 47.5605 26.4023 46.5293 26.7891C45.7793 27.0703 44.9941 27.2109 44.1738 27.2109ZM54.5625 27.2109C53.1914 27.2109 52.084 26.7832 51.2402 25.9277C50.2559 24.9199 49.7637 23.4199 49.7637 21.4277C49.7637 20.584 49.8516 19.6934 50.0273 18.7559C50.1914 17.8184 50.4375 16.8926 50.7656 15.9785C51.5156 13.916 52.541 12.252 53.8418 10.9863C55.3418 9.54492 57.0703 8.82422 59.0273 8.82422C60 8.82422 60.7266 8.99414 61.207 9.33398C61.6992 9.66211 61.9453 10.1016 61.9453 10.6523V10.916L62.332 9H67.5176L64.9336 21.2344C64.8281 21.5859 64.7754 21.9727 64.7754 22.3945C64.7754 23.4258 65.2676 23.9414 66.252 23.9414C66.9082 23.9414 67.5059 23.6074 68.0449 22.9395C68.502 22.377 68.877 21.5801 69.1699 20.5488H70.6816C70.0371 22.377 69.2578 23.8242 68.3438 24.8906C67.5703 25.7695 66.6973 26.4023 65.7246 26.7891C65.0098 27.0703 64.2539 27.2109 63.457 27.2109C62.4375 27.2109 61.623 26.9355 61.0137 26.3848C60.416 25.8223 60.0527 24.9961 59.9238 23.9062C59.2441 24.8672 58.5293 25.6172 57.7793 26.1562C56.8184 26.8594 55.7461 27.2109 54.5625 27.2109ZM56.9004 23.7305C57.1699 23.7305 57.4512 23.6602 57.7441 23.5195C58.0488 23.3789 58.3418 23.1797 58.623 22.9219C59.2559 22.3125 59.6777 21.5215 59.8887 20.5488L61.6113 12.4277C61.6113 12.3105 61.582 12.1758 61.5234 12.0234C61.4766 11.8594 61.4062 11.707 61.3125 11.5664C61.0312 11.2266 60.6387 11.0566 60.1348 11.0566C59.6543 11.0566 59.1855 11.2148 58.7285 11.5312C58.2832 11.8477 57.8613 12.2871 57.4629 12.8496C56.7598 13.8691 56.1797 15.1992 55.7227 16.8398C55.5117 17.5664 55.3535 18.2871 55.248 19.002C55.1426 19.7051 55.0898 20.3438 55.0898 20.918C55.0898 22.1133 55.3125 22.9219 55.7578 23.3438C55.9102 23.5078 56.0801 23.6133 56.2676 23.6602C56.4551 23.707 56.666 23.7305 56.9004 23.7305ZM91.0723 27.2109C89.584 27.2109 88.4824 26.7891 87.7676 25.9453C87.1465 25.2188 86.8359 24.2871 86.8359 23.1504C86.8359 22.6113 86.9004 21.9844 87.0293 21.2695C87.1699 20.5547 87.375 19.6348 87.6445 18.5098C87.9141 17.3613 88.1133 16.4473 88.2422 15.7676C88.3828 15.0762 88.4531 14.4785 88.4531 13.9746C88.4531 12.7441 88.0195 12.1289 87.1523 12.1289C86.543 12.1289 85.9805 12.4512 85.4648 13.0957C85.0312 13.6465 84.6562 14.4316 84.3398 15.4512L81.8965 27H76.7109L79.3477 14.5723C79.418 14.291 79.4531 13.9922 79.4531 13.6758C79.4531 13.1953 79.377 12.8262 79.2246 12.5684C79.0254 12.252 78.7383 12.0938 78.3633 12.0938C77.6836 12.0938 77.0918 12.4219 76.5879 13.0781C76.1426 13.6406 75.7617 14.4316 75.4453 15.4512L73.002 27H67.8164L71.6309 9H76.8164L76.4297 10.8633C77.1328 10.0781 77.9004 9.52148 78.7324 9.19336C79.3887 8.94727 80.0859 8.82422 80.8242 8.82422C81.832 8.82422 82.6348 9.05859 83.2324 9.52734C83.9004 10.0547 84.3281 10.8516 84.5156 11.918C85.2891 10.7227 86.1797 9.87891 87.1875 9.38672C87.9023 9.03516 88.6816 8.85938 89.5254 8.85938C90.7324 8.85938 91.6875 9.17578 92.3906 9.80859C93.1406 10.5 93.5156 11.5371 93.5156 12.9199C93.5156 13.7051 93.3691 14.7891 93.0762 16.1719C92.959 16.7461 92.8184 17.3262 92.6543 17.9121C92.3613 19.0371 92.1211 20.0742 91.9336 21.0234C91.8398 21.5156 91.793 21.9141 91.793 22.2188C91.793 22.6992 91.8984 23.0742 92.1094 23.3438C92.332 23.6016 92.707 23.7305 93.2344 23.7305C93.9492 23.7305 94.5527 23.4375 95.0449 22.8516C95.4199 22.4062 95.8242 21.6387 96.2578 20.5488H97.7695C96.8789 23.1855 95.7539 25.0312 94.3945 26.0859C93.4336 26.8359 92.3262 27.2109 91.0723 27.2109ZM100.582 27.2109C99.2109 27.2109 98.1035 26.7832 97.2598 25.9277C96.2754 24.9199 95.7832 23.4199 95.7832 21.4277C95.7832 20.584 95.8711 19.6934 96.0469 18.7559C96.2109 17.8184 96.457 16.8926 96.7852 15.9785C97.5352 13.916 98.5605 12.252 99.8613 10.9863C101.361 9.54492 103.09 8.82422 105.047 8.82422C106.02 8.82422 106.746 8.99414 107.227 9.33398C107.719 9.66211 107.965 10.1016 107.965 10.6523V10.916L108.352 9H113.537L110.953 21.2344C110.848 21.5859 110.795 21.9727 110.795 22.3945C110.795 23.4258 111.287 23.9414 112.271 23.9414C112.928 23.9414 113.525 23.6074 114.064 22.9395C114.521 22.377 114.896 21.5801 115.189 20.5488H116.701C116.057 22.377 115.277 23.8242 114.363 24.8906C113.59 25.7695 112.717 26.4023 111.744 26.7891C111.029 27.0703 110.273 27.2109 109.477 27.2109C108.457 27.2109 107.643 26.9355 107.033 26.3848C106.436 25.8223 106.072 24.9961 105.943 23.9062C105.264 24.8672 104.549 25.6172 103.799 26.1562C102.838 26.8594 101.766 27.2109 100.582 27.2109ZM102.92 23.7305C103.189 23.7305 103.471 23.6602 103.764 23.5195C104.068 23.3789 104.361 23.1797 104.643 22.9219C105.275 22.3125 105.697 21.5215 105.908 20.5488L107.631 12.4277C107.631 12.3105 107.602 12.1758 107.543 12.0234C107.496 11.8594 107.426 11.707 107.332 11.5664C107.051 11.2266 106.658 11.0566 106.154 11.0566C105.674 11.0566 105.205 11.2148 104.748 11.5312C104.303 11.8477 103.881 12.2871 103.482 12.8496C102.779 13.8691 102.199 15.1992 101.742 16.8398C101.531 17.5664 101.373 18.2871 101.268 19.002C101.162 19.7051 101.109 20.3438 101.109 20.918C101.109 22.1133 101.332 22.9219 101.777 23.3438C101.93 23.5078 102.1 23.6133 102.287 23.6602C102.475 23.707 102.686 23.7305 102.92 23.7305ZM117.65 9H122.836L122.379 11.2324C123.199 10.5059 123.867 9.99023 124.383 9.68555C125.18 9.22852 125.959 9 126.721 9C127.494 9 128.115 9.27539 128.584 9.82617C128.795 10.0723 128.953 10.3594 129.059 10.6875C129.164 11.0039 129.217 11.3438 129.217 11.707C129.217 12.0352 129.164 12.3516 129.059 12.6562C128.953 12.9609 128.795 13.2363 128.584 13.4824C128.35 13.7402 128.062 13.9453 127.723 14.0977C127.395 14.25 127.025 14.3262 126.615 14.3262C126.299 14.3262 126.047 14.2734 125.859 14.168C125.672 14.0625 125.525 13.9102 125.42 13.7109C125.326 13.5117 125.262 13.3184 125.227 13.1309C125.121 12.627 125.016 12.293 124.91 12.1289C124.828 12.0117 124.699 11.9531 124.523 11.9531C124.02 11.9531 123.592 12.0586 123.24 12.2695C122.889 12.4805 122.443 12.832 121.904 13.3242L119.021 27H113.836L117.65 9ZM134.754 7.04883C134.367 7.04883 133.998 6.97852 133.646 6.83789C133.295 6.68555 132.99 6.48047 132.732 6.22266C132.475 5.97656 132.27 5.67773 132.117 5.32617C131.977 4.97461 131.906 4.60547 131.906 4.21875C131.906 3.83203 131.977 3.46289 132.117 3.11133C132.27 2.75977 132.475 2.44922 132.732 2.17969C132.99 1.91016 133.295 1.70508 133.646 1.56445C133.998 1.41211 134.367 1.33594 134.754 1.33594C135.141 1.33594 135.51 1.41211 135.861 1.56445C136.213 1.70508 136.523 1.91016 136.793 2.17969C137.062 2.44922 137.268 2.75977 137.408 3.11133C137.561 3.46289 137.637 3.83203 137.637 4.21875C137.637 4.60547 137.561 4.97461 137.408 5.32617C137.268 5.67773 137.062 5.97656 136.793 6.22266C136.523 6.48047 136.213 6.68555 135.861 6.83789C135.51 6.97852 135.141 7.04883 134.754 7.04883ZM132.311 27.2109C131.162 27.2109 130.254 26.8711 129.586 26.1914C128.836 25.4414 128.461 24.3457 128.461 22.9043C128.461 22.2246 128.555 21.4395 128.742 20.5488L131.186 9H136.371L133.787 21.2344C133.693 21.5391 133.646 21.9258 133.646 22.3945C133.646 22.8867 133.758 23.2324 133.98 23.4316C134.215 23.6309 134.59 23.7305 135.105 23.7305C135.457 23.7305 135.797 23.6543 136.125 23.502C136.465 23.3379 136.775 23.1152 137.057 22.834C137.631 22.2598 138.064 21.498 138.357 20.5488H139.869C139.225 22.3652 138.416 23.8125 137.443 24.8906C136.623 25.7695 135.697 26.4023 134.666 26.7891C133.916 27.0703 133.131 27.2109 132.311 27.2109Z" fill="url(#paint0_linear_192_14450)"/>
<defs>
<linearGradient id="paint0_linear_192_14450" x1="0" y1="16.5" x2="306" y2="16.5" gradientUnits="userSpaceOnUse">
<stop stop-color="#029F7E"/>
<stop offset="1" stop-color="#01392D"/>
</linearGradient>
</defs>
</svg>
